<mxfile host="app.diagrams.net" modified="2023-10-08T01:07:18.843Z" agent="Mozilla/5.0 (Windows NT 10.0; Win64; x64; rv:109.0) Gecko/20100101 Firefox/118.0" etag="UNPFRZF_S_utfuhfIlpw" version="22.0.4" type="device">
  <diagram name="Page-1" id="Ir2mnbEKkDCIaxj3xJMn">
    <mxGraphModel dx="1266" dy="803" grid="1" gridSize="10" guides="1" tooltips="1" connect="1" arrows="1" fold="1" page="1" pageScale="1" pageWidth="827" pageHeight="1169" math="0" shadow="0">
      <root>
        <mxCell id="0" />
        <mxCell id="1" parent="0" />
        <mxCell id="TH3GNR_XO7iftzIWNU0B-1" value="&lt;font style=&quot;font-size: 19px;&quot;&gt;character_stats&lt;/font&gt;&lt;br&gt;&lt;br&gt;&lt;div align=&quot;left&quot;&gt;&lt;ol&gt;&lt;li style=&quot;margin:0in;font-family:Calibri;font-size:11.0pt&quot;&gt;&amp;nbsp;PK character_id &lt;br&gt;&lt;/li&gt;&lt;li style=&quot;margin:0in;font-family:Calibri;font-size:11.0pt&quot;&gt;character_name &lt;br&gt;&lt;/li&gt;&lt;li style=&quot;margin:0in;font-family:Calibri;font-size:11.0pt&quot;&gt;character_archetype&lt;br&gt;&lt;/li&gt;&lt;li style=&quot;margin:0in;font-family:Calibri;font-size:11.0pt&quot;&gt;character_forwardSpeed &lt;br&gt;&lt;/li&gt;&lt;li style=&quot;margin:0in;font-family:Calibri;font-size:11.0pt&quot;&gt;character_backwardSpeed &lt;br&gt;&lt;/li&gt;&lt;li style=&quot;margin:0in;font-family:Calibri;font-size:11.0pt&quot;&gt;character_dashForwardSpeed &lt;br&gt;&lt;/li&gt;&lt;li style=&quot;margin:0in;font-family:Calibri;font-size:11.0pt&quot;&gt;character_dashBackwardSpeed &lt;br&gt;&lt;/li&gt;&lt;li style=&quot;margin:0in;font-family:Calibri;font-size:11.0pt&quot;&gt;character_health &lt;br&gt;&lt;/li&gt;&lt;li style=&quot;margin:0in;font-family:Calibri;font-size:11.0pt&quot;&gt;character_preJumpFrames &lt;br&gt;&lt;/li&gt;&lt;/ol&gt;&lt;/div&gt;" style="whiteSpace=wrap;html=1;aspect=fixed;" vertex="1" parent="1">
          <mxGeometry x="20" y="290" width="260" height="260" as="geometry" />
        </mxCell>
        <mxCell id="TH3GNR_XO7iftzIWNU0B-15" value="" style="edgeStyle=entityRelationEdgeStyle;fontSize=12;html=1;endArrow=ERoneToMany;startArrow=ERmandOne;rounded=0;strokeWidth=2;exitX=0.996;exitY=0.308;exitDx=0;exitDy=0;exitPerimeter=0;" edge="1" parent="1" source="TH3GNR_XO7iftzIWNU0B-1" target="TH3GNR_XO7iftzIWNU0B-16">
          <mxGeometry width="100" height="100" relative="1" as="geometry">
            <mxPoint x="300" y="330" as="sourcePoint" />
            <mxPoint x="490" y="250" as="targetPoint" />
          </mxGeometry>
        </mxCell>
        <mxCell id="TH3GNR_XO7iftzIWNU0B-16" value="&lt;div style=&quot;&quot;&gt;&lt;div align=&quot;center&quot;&gt;&lt;span style=&quot;white-space: pre;&quot;&gt;&#x9;&lt;/span&gt;&lt;font style=&quot;font-size: 22px;&quot;&gt;move_list&lt;/font&gt;&lt;br&gt;&lt;/div&gt;&lt;ol&gt;&lt;li&gt;FK character_name&lt;/li&gt;&lt;li&gt;PK move_name &lt;br&gt;&lt;/li&gt;&lt;li&gt;move_buttonCombo&lt;br&gt;&lt;/li&gt;&lt;li&gt;move_startupFrames &lt;br&gt;&lt;/li&gt;&lt;li&gt;move_activeFrames&lt;/li&gt;&lt;li&gt;move_recoveryFrames &lt;br&gt;&lt;/li&gt;&lt;li&gt;move_onHitAdvantage &lt;br&gt;&lt;/li&gt;&lt;li&gt;move_onBlockAdvantage &lt;br&gt;&lt;/li&gt;&lt;li&gt;move_totalFrames&lt;br&gt;&lt;/li&gt;&lt;li&gt;move_rawDamage &lt;br&gt;&lt;/li&gt;&lt;li&gt;move_heightHit &lt;br&gt;&lt;/li&gt;&lt;li&gt;move_crossup &lt;br&gt;&lt;/li&gt;&lt;/ol&gt;&lt;/div&gt;" style="whiteSpace=wrap;html=1;aspect=fixed;align=left;" vertex="1" parent="1">
          <mxGeometry x="520" y="50" width="260" height="260" as="geometry" />
        </mxCell>
        <mxCell id="TH3GNR_XO7iftzIWNU0B-17" value="&lt;font style=&quot;font-size: 21px;&quot;&gt;tier_placements&lt;/font&gt;&lt;br&gt;&lt;div align=&quot;left&quot;&gt;&lt;br&gt;&lt;ol&gt;&lt;li style=&quot;margin:0in;font-family:Calibri;font-size:11.0pt&quot;&gt;PK tier_placement &lt;br&gt;&lt;/li&gt;&lt;li style=&quot;margin:0in;font-family:Calibri;font-size:11.0pt&quot;&gt;FK character_name &lt;br&gt;&lt;/li&gt;&lt;li style=&quot;margin:0in;font-family:Calibri;font-size:11.0pt&quot;&gt;tier_matchupScores &lt;br&gt;&lt;/li&gt;&lt;li style=&quot;margin:0in;font-family:Calibri;font-size:11.0pt&quot;&gt;tier_date&lt;br&gt;&lt;/li&gt;&lt;/ol&gt;&lt;/div&gt;" style="whiteSpace=wrap;html=1;aspect=fixed;" vertex="1" parent="1">
          <mxGeometry x="25" y="30" width="250" height="250" as="geometry" />
        </mxCell>
        <mxCell id="TH3GNR_XO7iftzIWNU0B-18" value="&lt;font style=&quot;font-size: 19px;&quot;&gt;character_matchups&lt;/font&gt;&lt;br&gt;&lt;div align=&quot;left&quot;&gt;&lt;ol&gt;&lt;li style=&quot;margin:0in;font-family:Calibri;font-size:11.0pt&quot;&gt;FK character_name &lt;br&gt;&lt;/li&gt;&lt;li style=&quot;margin:0in;font-family:Calibri;font-size:11.0pt&quot;&gt;PK character_matchup &lt;br&gt;&lt;/li&gt;&lt;li style=&quot;margin:0in;font-family:Calibri;font-size:11.0pt&quot;&gt;matchup_score &lt;br&gt;&lt;/li&gt;&lt;/ol&gt;&lt;/div&gt;" style="whiteSpace=wrap;html=1;aspect=fixed;" vertex="1" parent="1">
          <mxGeometry x="540" y="370" width="270" height="270" as="geometry" />
        </mxCell>
        <mxCell id="TH3GNR_XO7iftzIWNU0B-19" value="" style="edgeStyle=entityRelationEdgeStyle;fontSize=12;html=1;endArrow=ERmandOne;startArrow=ERmandOne;rounded=0;jumpSize=6;strokeWidth=2;entryX=1;entryY=0.468;entryDx=0;entryDy=0;entryPerimeter=0;" edge="1" parent="1" source="TH3GNR_XO7iftzIWNU0B-1" target="TH3GNR_XO7iftzIWNU0B-17">
          <mxGeometry width="100" height="100" relative="1" as="geometry">
            <mxPoint x="290" y="340" as="sourcePoint" />
            <mxPoint x="260" y="75" as="targetPoint" />
            <Array as="points">
              <mxPoint x="290" y="350" />
              <mxPoint x="425.95" y="455.5" />
              <mxPoint x="450" y="610" />
              <mxPoint x="460" y="630" />
              <mxPoint x="360.95" y="575.5" />
              <mxPoint x="470.95" y="675.5" />
              <mxPoint x="440.95" y="628" />
              <mxPoint x="490.95" y="805.5" />
              <mxPoint x="480.95" y="715.5" />
              <mxPoint x="250.95" y="595.5" />
              <mxPoint x="330.95" y="575.5" />
            </Array>
          </mxGeometry>
        </mxCell>
        <mxCell id="TH3GNR_XO7iftzIWNU0B-20" value="" style="edgeStyle=entityRelationEdgeStyle;fontSize=12;html=1;endArrow=ERoneToMany;startArrow=ERmandOne;rounded=0;strokeWidth=2;entryX=0;entryY=0.5;entryDx=0;entryDy=0;exitX=1.008;exitY=0.719;exitDx=0;exitDy=0;exitPerimeter=0;" edge="1" parent="1" source="TH3GNR_XO7iftzIWNU0B-1" target="TH3GNR_XO7iftzIWNU0B-18">
          <mxGeometry width="100" height="100" relative="1" as="geometry">
            <mxPoint x="290" y="480" as="sourcePoint" />
            <mxPoint x="280" y="780" as="targetPoint" />
          </mxGeometry>
        </mxCell>
        <mxCell id="TH3GNR_XO7iftzIWNU0B-22" value="&lt;div&gt;&lt;font style=&quot;font-size: 19px;&quot;&gt;character_popularity&lt;/font&gt;&lt;/div&gt;&lt;div&gt;&lt;br&gt;&lt;/div&gt;&lt;div align=&quot;left&quot;&gt;&lt;ol&gt;&lt;li&gt;PK number_of_players &lt;br&gt;&lt;/li&gt;&lt;li&gt;FK character_name&lt;br&gt;&lt;/li&gt;&lt;li&gt;highest_LP_achieved &lt;br&gt;&lt;/li&gt;&lt;li&gt;top_player_name&lt;br&gt;&lt;/li&gt;&lt;/ol&gt;&lt;/div&gt;" style="whiteSpace=wrap;html=1;aspect=fixed;" vertex="1" parent="1">
          <mxGeometry x="31.5" y="585" width="237" height="237" as="geometry" />
        </mxCell>
        <mxCell id="TH3GNR_XO7iftzIWNU0B-23" value="" style="edgeStyle=entityRelationEdgeStyle;fontSize=12;html=1;endArrow=ERoneToMany;startArrow=ERmandOne;rounded=0;strokeWidth=2;exitX=1.038;exitY=0.962;exitDx=0;exitDy=0;exitPerimeter=0;" edge="1" parent="1" target="TH3GNR_XO7iftzIWNU0B-22">
          <mxGeometry width="100" height="100" relative="1" as="geometry">
            <mxPoint x="280.0000000000001" y="519.9999999999999" as="sourcePoint" />
            <mxPoint x="258.62" y="683.38" as="targetPoint" />
          </mxGeometry>
        </mxCell>
      </root>
    </mxGraphModel>
  </diagram>
</mxfile>
